<svg xmlns="http://www.w3.org/2000/svg" viewBox="0 0 512 512" width="512" height="512">
  <defs>
    <linearGradient id="body1" x1="0%" y1="0%" x2="100%" y2="100%">
      <stop offset="0%" style="stop-color:#c4b5fd"/>
      <stop offset="100%" style="stop-color:#a78bfa"/>
    </linearGradient>
    <linearGradient id="body2" x1="0%" y1="0%" x2="100%" y2="100%">
      <stop offset="0%" style="stop-color:#a78bfa"/>
      <stop offset="100%" style="stop-color:#8b5cf6"/>
    </linearGradient>
    <linearGradient id="body3" x1="0%" y1="0%" x2="100%" y2="100%">
      <stop offset="0%" style="stop-color:#8b5cf6"/>
      <stop offset="100%" style="stop-color:#7c3aed"/>
    </linearGradient>
  </defs>

  <!-- Back rectangle (largest, lightest) -->
  <rect x="180" y="100" width="200" height="160" rx="20" fill="url(#body1)" opacity="0.7"/>

  <!-- Middle rectangle (offset, medium) -->
  <rect x="140" y="150" width="200" height="160" rx="20" fill="url(#body2)" opacity="0.85"/>

  <!-- Front rectangle (smallest, darkest - the "face") -->
  <rect x="170" y="130" width="200" height="170" rx="22" fill="url(#body3)"/>

  <!-- Eyes -->
  <circle cx="232" cy="210" r="16" fill="white"/>
  <circle cx="308" cy="210" r="16" fill="white"/>
  <circle cx="236" cy="213" r="8" fill="#1e1033"/>
  <circle cx="312" cy="213" r="8" fill="#1e1033"/>
  <!-- Eye shine -->
  <circle cx="240" cy="208" r="3" fill="white" opacity="0.9"/>
  <circle cx="316" cy="208" r="3" fill="white" opacity="0.9"/>

  <!-- Friendly mouth - slight smile -->
  <path d="M252 248 Q270 264 288 248" stroke="#1e1033" stroke-width="4" fill="none" stroke-linecap="round"/>

  <!-- Split line on face (represents pane splitting) -->
  <line x1="270" y1="140" x2="270" y2="155" stroke="white" stroke-width="3" stroke-linecap="round" opacity="0.5"/>
  <line x1="243" y1="148" x2="297" y2="148" stroke="white" stroke-width="3" stroke-linecap="round" opacity="0.5"/>

  <!-- Legs -->
  <rect x="215" y="300" width="24" height="40" rx="10" fill="url(#body3)"/>
  <rect x="300" y="300" width="24" height="40" rx="10" fill="url(#body3)"/>

  <!-- Feet -->
  <ellipse cx="227" cy="342" rx="18" ry="10" fill="#7c3aed"/>
  <ellipse cx="312" cy="342" rx="18" ry="10" fill="#7c3aed"/>

  <!-- Little arms -->
  <rect x="138" y="195" width="36" height="18" rx="9" fill="url(#body2)"/>
  <rect x="366" y="195" width="36" height="18" rx="9" fill="url(#body2)"/>
</svg>
